<?xml version="1.0" standalone="no"?>
<!DOCTYPE svg PUBLIC "-//W3C//DTD SVG 20010904//EN"
 "http://www.w3.org/TR/2001/REC-SVG-20010904/DTD/svg10.dtd">
<svg version="1.0" xmlns="http://www.w3.org/2000/svg"
 width="512.000000pt" height="512.000000pt" viewBox="0 0 512.000000 512.000000"
 preserveAspectRatio="xMidYMid meet">
<metadata>
Created by potrace 1.14, written by Peter Selinger 2001-2017
</metadata>
<g transform="translate(0.000000,512.000000) scale(0.100000,-0.100000)"
fill="#000000" stroke="none">
<path d="M2380 5113 c-143 -19 -190 -28 -285 -53 -510 -134 -928 -491 -1146
-980 -74 -166 -130 -388 -141 -555 l-3 -50 150 0 c93 0 150 4 151 10 3 65 20
169 41 250 67 260 186 467 378 660 211 211 474 351 755 401 102 19 325 24 445
12 268 -29 572 -172 792 -373 55 -50 170 -181 198 -226 6 -9 23 -36 39 -60 44
-66 110 -204 145 -302 33 -94 71 -274 71 -338 l0 -39 150 0 c173 0 158 -11
146 105 -20 193 -78 389 -171 575 -46 93 -118 216 -134 230 -3 3 -18 23 -34
45 -83 122 -270 300 -417 397 -210 139 -453 237 -678 273 -23 4 -54 9 -70 11
-35 6 -350 12 -382 7z"/>
<path d="M2078 3555 c-2 -2 -23 -5 -48 -8 -61 -7 -146 -46 -197 -91 -83 -73
-125 -217 -85 -297 51 -102 233 -67 240 48 4 48 17 70 55 93 38 24 87 25 131
5 82 -39 84 -139 6 -228 -23 -25 -103 -93 -179 -151 -158 -120 -220 -178 -259
-244 -24 -43 -27 -58 -31 -165 -3 -112 -2 -120 20 -143 12 -13 39 -29 58 -34
20 -5 174 -9 342 -9 295 0 307 1 328 20 57 53 52 166 -8 199 -12 6 -110 10
-246 10 l-225 0 6 28 c11 44 43 75 168 163 266 186 348 300 342 472 -6 186
-154 320 -366 331 -27 2 -51 2 -52 1z"/>
<path d="M3025 3540 c-39 -19 -48 -33 -195 -323 -84 -166 -177 -349 -207 -405
-62 -121 -67 -160 -27 -197 27 -25 28 -25 240 -25 l213 0 -2 -100 c-1 -118 8
-133 87 -151 61 -13 125 0 156 33 17 19 20 36 20 120 l0 98 43 0 c49 1 67 12
91 58 22 42 18 106 -9 146 -18 27 -27 31 -73 34 l-52 3 0 59 c0 32 -4 70 -9
83 -16 42 -103 64 -178 46 -62 -16 -75 -36 -77 -116 l-1 -68 -67 -3 c-38 -2
-68 1 -68 5 0 4 68 144 151 311 142 286 150 305 139 333 -26 61 -113 90 -175
59z"/>
<path d="M609 3155 c-210 -57 -370 -226 -408 -430 -8 -39 -11 -230 -11 -557 1
-458 3 -501 20 -560 53 -174 179 -312 340 -371 74 -27 95 -29 355 -32 299 -3
324 2 395 75 32 33 51 63 60 96 11 39 14 203 13 824 l0 775 -22 47 c-27 55
-69 100 -120 125 -32 16 -68 18 -306 20 -190 1 -284 -3 -316 -12z"/>
<path d="M3914 3154 c-54 -19 -119 -85 -141 -143 -16 -42 -18 -107 -18 -831
l1 -785 24 -49 c31 -61 91 -113 150 -130 l45 -13 1 -50 c3 -228 -151 -443
-376 -523 -59 -22 -85 -24 -300 -28 l-235 -4 -23 44 c-29 55 -110 140 -165
172 -23 14 -74 37 -112 52 -61 24 -85 27 -185 28 -126 1 -150 -2 -227 -32
-162 -62 -283 -190 -309 -326 -43 -222 91 -424 336 -507 97 -33 268 -33 368 0
77 25 166 77 217 127 27 27 89 113 97 135 2 4 100 9 218 10 332 2 429 24 623
146 68 42 208 191 255 272 73 125 119 293 118 430 -1 28 4 51 9 52 6 0 48 2
95 3 113 4 152 12 235 51 165 76 282 224 314 400 5 28 9 269 9 537 1 534 -1
554 -59 676 -45 94 -152 199 -249 245 -41 19 -99 40 -128 46 -83 17 -537 13
-588 -5z"/>
</g>
</svg>
